<?xml version="1.0" encoding="utf-8"?>
<!-- Generator: Adobe Illustrator 17.0.0, SVG Export Plug-In . SVG Version: 6.00 Build 0)  -->
<!DOCTYPE svg PUBLIC "-//W3C//DTD SVG 1.1//EN" "http://www.w3.org/Graphics/SVG/1.1/DTD/svg11.dtd">
<svg fill="#ffffff" version="1.1" id="Capa_1" xmlns="http://www.w3.org/2000/svg" xmlns:xlink="http://www.w3.org/1999/xlink" x="0px" y="0px"
	 width="2592px" height="2592px" viewBox="0 0 2592 2592" enable-background="new 0 0 2592 2592" xml:space="preserve">
<g>
	<g>
		<path d="M1897.042,533.976l-408.69-69.457L1295.998,97.291l-192.354,367.223l-408.695,69.457L984.761,830.39l-60.233,410.153
			l371.47-184.026l371.46,184.032l-60.228-410.153L1897.042,533.976z M1470.34,969.229l-174.342-86.371l-174.347,86.366
			l28.269-192.496l-136.014-139.117l191.813-32.602l90.279-172.347l90.274,172.352l191.813,32.602l-136.014,139.117L1470.34,969.229
			z"/>
	</g>
</g>
<g>
	<g>
		<path d="M727.257,1139.339l132.328-285.2l-309.799,53.617L319.438,693.769l-44.747,311.201L0,1157.923l282.148,138.717
			l60.578,308.508l219.115-225.468l312.128,37.721L727.257,1139.339z M503.976,1215.939l-65.797,67.716l-18.19-92.649
			l-84.726-41.654l82.488-45.932l13.436-93.448l69.169,64.258l93.028-16.099l-39.736,85.637l44.064,83.501L503.976,1215.939z"/>
	</g>
</g>
<g>
	<g>
		<path d="M2317.299,1004.975l-44.747-311.201L2042.209,907.76l-309.799-53.617l132.328,285.201l-146.721,278.067l312.138-37.721
			l219.12,225.468l60.578-308.508L2592,1157.933L2317.299,1004.975z M2172.006,1191.012l-18.185,92.644l-65.797-67.701
			l-93.727,11.33l44.064-83.501l-39.741-85.642l93.034,16.099l69.169-64.258l13.436,93.449l82.483,45.922L2172.006,1191.012z"/>
	</g>
</g>
<g>
	<g>
		<rect x="1073.162" y="1390.453" width="155.616" height="1106.458"/>
	</g>
</g>
<g>
	<g>
		<path d="M738.035,1535.626l-18.61-41.867l-142.2,63.205l18.61,41.867c79.223,178.255,134.556,366.372,164.45,559.137
			l76.884-11.922l76.884-11.922C882.058,1927.791,822.832,1726.431,738.035,1535.626z"/>
	</g>
</g>
<g>
	<g>
		<path d="M1872.57,1493.759l-18.605,41.872c-84.807,190.815-144.028,392.176-176.023,598.493l76.884,11.922l76.884,11.922
			c29.894-192.749,85.222-380.872,164.455-559.137l18.61-41.867L1872.57,1493.759z"/>
	</g>
</g>
<g>
	<g>
		<rect x="1363.248" y="1390.453" width="155.616" height="1106.458"/>
	</g>
</g>
<g>
	<g>
		
			<rect x="2030.257" y="450.352" transform="matrix(-0.7071 0.7071 -0.7071 -0.7071 3967.5481 -590.9102)" width="151.797" height="151.797"/>
	</g>
</g>
<g>
	<g>
		
			<rect x="1594.971" y="126.538" transform="matrix(-0.7071 0.7071 -0.7071 -0.7071 2995.4983 -835.902)" width="151.797" height="151.797"/>
	</g>
</g>
<g>
	<g>
		
			<rect x="410.471" y="450.969" transform="matrix(-0.7071 0.7071 -0.7071 -0.7071 1202.8363 555.5048)" width="151.797" height="151.797"/>
	</g>
</g>
</svg>
