<?xml version="1.0" encoding="utf-8"?>
<!-- Generator: Adobe Illustrator 17.0.0, SVG Export Plug-In . SVG Version: 6.00 Build 0)  -->
<!DOCTYPE svg PUBLIC "-//W3C//DTD SVG 1.1//EN" "http://www.w3.org/Graphics/SVG/1.1/DTD/svg11.dtd">
<svg fill="#ffffff" version="1.1" id="Capa_1" xmlns="http://www.w3.org/2000/svg" xmlns:xlink="http://www.w3.org/1999/xlink" x="0px" y="0px"
	 width="2592px" height="2592px" viewBox="0 0 2592 2592" enable-background="new 0 0 2592 2592" xml:space="preserve">
<g>
	<g>
		<g>
			<path d="M1268.154,2389.496H539.155c-111.658,0-202.5-90.842-202.5-202.5V404.999c0-111.658,90.841-202.5,202.5-202.5h1244.816
				c111.658,0,202.5,90.841,202.5,202.5v956.811c0,55.92,45.33,101.25,101.25,101.25s101.25-45.33,101.25-101.25V404.999
				C2188.97,181.683,2007.288,0,1783.971,0H539.155C315.839,0,134.156,181.683,134.156,404.999v1781.997
				c0,223.317,181.683,404.999,404.999,404.999h728.999c55.92,0,101.25-45.33,101.25-101.25S1324.079,2389.496,1268.154,2389.496z"
				/>
			<path d="M1683.278,855.561h-637.874c-55.92,0-101.25,45.329-101.25,101.25c0,55.92,45.33,101.25,101.25,101.25h637.874
				c55.92,0,101.25-45.33,101.25-101.25C1784.528,900.89,1739.203,855.561,1683.278,855.561z"/>
			<path d="M1045.404,1665.559c-55.92,0-101.25,45.33-101.25,101.25c0,55.92,45.33,101.25,101.25,101.25h152.016
				c55.92,0,101.25-45.33,101.25-101.25c0-55.92-45.33-101.25-101.25-101.25H1045.404z"/>
			<path d="M1683.278,450.562h-637.874c-55.92,0-101.25,45.33-101.25,101.25s45.33,101.25,101.25,101.25h637.874
				c55.92,0,101.25-45.33,101.25-101.25S1739.203,450.562,1683.278,450.562z"/>
			<path d="M1784.528,1361.81c0-55.92-45.33-101.25-101.25-101.25h-637.874c-55.92,0-101.25,45.33-101.25,101.25
				s45.33,101.25,101.25,101.25h637.874C1739.203,1463.06,1784.528,1417.73,1784.528,1361.81z"/>
			<circle cx="650.53" cy="1361.81" r="101.25"/>
			<path d="M2364.882,1757.52c-58.578-59.302-138.813-91.96-225.929-91.96c-86.685,0-161.549,27.565-217.647,78.98
				c-56.082-51.415-130.951-78.98-217.631-78.98c-87.11,0-167.341,32.658-225.929,91.965
				c-59.95,60.684-92.963,146.012-92.963,240.256c0,198.601,168.708,324.384,304.256,425.447
				c61.651,45.962,119.88,89.378,153.409,131.022c19.222,23.87,48.215,37.751,78.864,37.751s59.641-13.886,78.864-37.751
				c33.529-41.644,91.758-85.06,153.409-131.022c135.558-101.068,304.261-226.85,304.261-425.452
				C2457.839,1903.532,2424.827,1818.204,2364.882,1757.52z M2032.539,2260.878c-37.685,28.097-76.069,56.715-111.233,86.933
				c-35.169-30.218-73.548-58.836-111.233-86.933c-109.532-81.663-222.795-166.111-222.795-263.103
				c0-80.013,44.595-129.716,116.387-129.716c59.93,0,83.248,24.665,95.58,43.218c16.327,24.558,20.544,51.855,21.156,56.427
				c3.017,53.571,47.162,95.544,100.906,95.544s97.888-41.968,100.906-95.539c0.607-4.561,4.83-31.868,21.156-56.432
				c12.332-18.554,35.655-43.218,95.585-43.218c71.786,0,116.387,49.703,116.387,129.716
				C2255.34,2094.772,2142.081,2179.215,2032.539,2260.878z"/>
			<circle cx="650.53" cy="551.811" r="101.25"/>
			<circle cx="650.53" cy="956.811" r="101.25"/>
			<circle cx="650.53" cy="1766.809" r="101.25"/>
		</g>
	</g>
</g>
</svg>
